# xmcd
#
# Track frame offsets:
#	150
#	11496
#	22967
#	40774
#	53225
#	66354
#	81085
#	102476
#	116404
#	126371
#	136401
#	153597
#	165444
#	174776
#	186024
#	197719
#	210908
#	223664
#
# Disc length: 3228 seconds
#
# Revision: 0
# Processed by: cddbd v1.5.2PL0 Copyright (c) Steve Scherf et al.
# Submitted via: EasyCDDAExtractor 2010.6.0.0
#
DISCID=ef0c9a12
DTITLE=Marty Robbins - Hits
DYEAR=1900
DGENRE=Country
TTITLE0=A White Sort Coat (And A Pink Carnation)
TTITLE1=Begging To You
TTITLE2=Big Iron
TTITLE3=Smokin' Cigarettes And Drinkin' Coffee Blues
TTITLE4=Devil Woman
TTITLE5=Don't Worry
TTITLE6=El Paso
TTITLE7=I'll Walk Alone
TTITLE8=Just Married
TTITLE9=Knee-Deep In The Blues
TTITLE10=Laura (What's He Got That I Ain't Got)
TTITLE11=Ribbon Of Darkness
TTITLE12=Ruby Ann
TTITLE13=Singing The Blues
TTITLE14=The Story Of My Life
TTITLE15=This Much A Man
TTITLE16=Tonight, Carmen
TTITLE17=You Gave Me A Mountain
EXTD=
EXTT0=
EXTT1=
EXTT2=
EXTT3=
EXTT4=
EXTT5=
EXTT6=
EXTT7=
EXTT8=
EXTT9=
EXTT10=
EXTT11=
EXTT12=
EXTT13=
EXTT14=
EXTT15=
EXTT16=
EXTT17=
PLAYORDER=
